# generated from PmQm by Jehee Lee
:FULLY-SPECIFIED
:DEGREES
188
root 97.283765 18.5093 -94.27660451 31.32017315 77.33461547 -12.18873682
RightUpLeg -18.16888655 4.399729091 -11.099356
RightLeg 83.56878648 0 0
RightFoot -37.54607597 8.662079589 -16.44647343
RightToes 1.74622e-010 -3.18055e-015 8.94531e-016
Spine 48.7494 -2.58961 5.10327
Spine1 -13.3741 0.606395 -18.8166
HEad -63.4908 -3.62878 16.7742
LeftShoulder1 0 -2.69403e-036 -1.28585e-037
LeftArm 7.82993 -18.7475 -91.3685
LeftForeArm 26.3023 -5.71663 -5.42664
LeftHand -4.70513 -1.04642 52.4519
RightShoulder -2.48481e-017 0 -8.08114e-019
RightArm -7.52915 44.4798 81.7619
RightForeArm 7.4719 0.362674 -2.88641
RightHand 6.21908 -19.089 -35.6875
LeftUpLeg -59.53169078 -6.190310829 13.06138231
LeftLeg 123.0028822 0 0
LeftFoot 13.06249008 -23.39066467 4.710295163
LeftToes 4.94765e-010 2.02697e-011 4.00889e-011
189
root 98.64753305 18.6691 -93.83010003 49.91434574 79.1112944 4.950011343
RightUpLeg -16.69599983 1.129875114 -11.37997665
RightLeg 80.03168772 0 0
RightFoot -31.61841086 7.974747061 -17.33345668
RightToes 1.74622e-010 -3.18055e-015 8.94531e-016
Spine 48.3572 -3.69555 2.2237
Spine1 -14.132 -2.26905 -13.7482
HEad -64.1445 -1.53808 14.906
LeftShoulder1 0 -2.69403e-036 -1.28585e-037
LeftArm 8.46595 -11.4338 -87.9261
LeftForeArm 24.6686 -11.4837 -2.00933
LeftHand -4.14878 -0.86959 48.1917
RightShoulder -2.48481e-017 0 -8.08114e-019
RightArm -7.28318 43.0319 86.4181
RightForeArm 11.0459 1.44124 -2.12614
RightHand 6.59615 -19.3342 -37.6298
LeftUpLeg -58.18978412 -9.327417863 10.6470762
LeftLeg 120.5870649 0 0
LeftFoot 8.276583379 -24.06644423 3.050668934
LeftToes 4.94765e-010 2.02697e-011 4.00889e-011
190
root 99.80895509 18.9517 -93.51797552 51.34242626 79.14576511 4.837205483
RightUpLeg -18.42475407 1.847837594 -9.833782561
RightLeg 79.53227613 0 0
RightFoot -23.12446386 6.701237434 -19.09246386
RightToes 1.74622e-010 -3.18055e-015 8.94531e-016
Spine 48.8431 -3.55957 1.23535
Spine1 -15.257 -2.74903 -11.8317
HEad -65.5372 -0.488763 13.5815
LeftShoulder1 0 -2.69403e-036 -1.28585e-037
LeftArm 19.0332 -5.73258 -86.9832
LeftForeArm 11.614 -19.5829 6.84517
LeftHand -3.6499 -0.726443 43.9388
RightShoulder -2.48481e-017 0 -8.08114e-019
RightArm -7.29674 41.6157 89.2865
RightForeArm 13.8495 2.01574 -1.24711
RightHand 6.97465 -19.6886 -39.1058
LeftUpLeg -56.36389495 -9.625096843 10.20087104
LeftLeg 117.8599299 0 0
LeftFoot 8.000802189 -26.76672812 1.631842312
LeftToes 4.94765e-010 2.02697e-011 4.00889e-011
191
root 100.818297 19.2856 -93.30323043 41.76744224 77.91296276 -6.112649914
RightUpLeg -22.44192586 4.375864354 -8.950657781
RightLeg 82.45085915 0.2568485674 -0.891722753
RightFoot -16.88856196 8.845585025 -18.50935168
RightToes 1.74622e-010 -3.18055e-015 8.94531e-016
Spine 49.3508 -2.77196 1.14732
Spine1 -16.0279 -1.94694 -12.107
HEad -66.2628 0.562993 12.2758
LeftShoulder1 0 -2.69403e-036 -1.28585e-037
LeftArm 27.9117 -2.97278 -86.3457
LeftForeArm -2.18776 -24.3879 18.1475
LeftHand -3.36795 -0.67164 41.2297
RightShoulder -2.48481e-017 0 -8.08114e-019
RightArm -6.48564 40.008 92.0761
RightForeArm 15.6411 2.15148 -0.635609
RightHand 7.57474 -20.3238 -41.0068
LeftUpLeg -53.66435105 -8.111772053 10.37095199
LeftLeg 114.6700025 0 0
LeftFoot 9.621407283 -28.70054793 0.8843813496
LeftToes 4.94765e-010 2.02697e-011 4.00889e-011
192
root 101.7920607 19.5985 -93.11702841 34.42974642 76.2849688 -14.05009168
RightUpLeg -26.57058624 5.731646424 -8.790822408
RightLeg 88.44822803 0.6006275885 -2.047270113
RightFoot -14.78840027 10.52727447 -17.36237058
RightToes 1.74622e-010 -3.18055e-015 8.94531e-016
Spine 49.377 -2.19941 1.51426
Spine1 -15.7065 -1.07506 -12.749
HEad -66.1122 1.51038 11.0594
LeftShoulder1 0 -2.69403e-036 -1.28585e-037
LeftArm 20.4856 -5.05012 -84.8623
LeftForeArm 2.55568 -29.8645 21.3428
LeftHand -3.27794 -0.64153 40.4157
RightShoulder -2.48481e-017 0 -8.08114e-019
RightArm -5.67993 38.4684 94.3499
RightForeArm 16.7946 1.86891 -0.121356
RightHand 8.08934 -20.8165 -42.6478
LeftUpLeg -49.96902387 -6.967224743 10.36081717
LeftLeg 111.3407757 0 0
LeftFoot 9.366539571 -29.3461328 -0.02278091832
LeftToes 4.94765e-010 2.02697e-011 4.00889e-011
193
root 102.7740373 19.8392 -92.94333942 30.17526938 75.36504533 -18.32139543
RightUpLeg -30.65323207 5.90169477 -9.023876788
RightLeg 95.91628147 1.138070563 -3.263586685
RightFoot -15.4955484 11.76406838 -16.46054112
RightToes 1.74622e-010 -3.18055e-015 8.94531e-016
Spine 49.2359 -2.35168 2.60973
Spine1 -15.158 -0.625437 -12.8991
HEad -65.3905 2.20695 10.0595
LeftShoulder1 0 -2.69403e-036 -1.28585e-037
LeftArm 16.542 -11.1822 -83.0688
LeftForeArm 5.28766 -34.0218 23.3791
LeftHand -3.20901 -0.574511 40.0408
RightShoulder -2.48481e-017 0 -8.08114e-019
RightArm -5.32952 36.7212 96.4196
RightForeArm 18.1387 0.931356 0.212223
RightHand 8.38319 -21.0483 -43.6867
LeftUpLeg -46.12592689 -6.908932082 10.42709135
LeftLeg 108.1176684 0 0
LeftFoot 7.521299142 -29.88197987 -1.42107539
LeftToes 4.94765e-010 2.02697e-011 4.00889e-011
194
root 103.6841332 19.9432 -92.77222213 27.25274667 74.97734763 -21.4374285
RightUpLeg -35.85855288 6.066188568 -9.233679987
RightLeg 104.0253189 1.806450605 -4.239982187
RightFoot -17.05110741 12.74583084 -16.03399658
RightToes 1.74622e-010 -3.18055e-015 8.94531e-016
Spine 49.0031 -2.58627 3.83413
Spine1 -15.3289 -0.312153 -12.8053
HEad -64.6113 2.68247 9.07747
LeftShoulder1 0 -2.69403e-036 -1.28585e-037
LeftArm 14.5925 -20.0378 -81.2014
LeftForeArm 5.74065 -35.3104 24.0342
LeftHand -2.97679 -0.394972 38.4478
RightShoulder -2.48481e-017 0 -8.08114e-019
RightArm -5.54418 34.4587 98.077
RightForeArm 19.9798 -0.0959086 0.372567
RightHand 8.64726 -21.2425 -44.6303
LeftUpLeg -43.29616951 -7.159992069 10.66537402
LeftLeg 104.9032811 0 0
LeftFoot 5.836436339 -30.3229381 -2.477619616
LeftToes 4.94765e-010 2.02697e-011 4.00889e-011
195
root 104.5603759 19.9367 -92.57454785 25.37899765 75.08801213 -23.78233706
RightUpLeg -42.28221997 6.226612815 -9.364242826
RightLeg 112.0736519 2.343857673 -4.448334123
RightFoot -19.56283282 13.5313535 -16.03652748
RightToes 1.74622e-010 -3.18055e-015 8.94531e-016
Spine 48.7289 -2.37773 4.36932
Spine1 -15.881 0.0305705 -11.7456
HEad -64.1844 3.32282 7.79427
LeftShoulder1 0 -2.69403e-036 -1.28585e-037
LeftArm 13.3422 -30.3256 -79.6257
LeftForeArm 4.38845 -32.9554 22.8245
LeftHand -2.68083 -0.164951 36.2811
RightShoulder -2.48481e-017 0 -8.08114e-019
RightArm -5.9682 32.1169 98.8328
RightForeArm 22.063 -0.190785 0.631628
RightHand 8.96594 -21.488 -45.6884
LeftUpLeg -41.53672118 -7.43011737 11.00830316
LeftLeg 101.1779251 0 0
LeftFoot 5.299205732 -29.36223551 -4.585763568
LeftToes 4.94765e-010 2.02697e-011 4.00889e-011
196
root 105.4615536 19.8887 -92.37224765 23.56094893 76.2732134 -25.67709088
RightUpLeg -48.74723273 5.418505729 -9.210205167
RightLeg 119.4948874 2.266176913 -3.491822938
RightFoot -23.71868581 14.13475446 -16.38431333
RightToes 1.74622e-010 -3.18055e-015 8.94531e-016
Spine 48.6547 -2.24852 4.48013
Spine1 -15.8625 0.0957236 -8.5326
HEad -64.2026 4.42438 6.21879
LeftShoulder1 0 -2.69403e-036 -1.28585e-037
LeftArm 13.1592 -40.7105 -77.9268
LeftForeArm 1.51832 -27.2078 20.1817
LeftHand -2.49568 -0.0394953 34.7281
RightShoulder -2.48481e-017 0 -8.08114e-019
RightArm -5.96793 30.3191 99.0636
RightForeArm 23.9803 0.373363 1.22911
RightHand 9.22942 -21.6896 -46.5336
LeftUpLeg -39.75973078 -8.565950683 11.6309633
LeftLeg 96.77874702 0 0
LeftFoot 5.493952485 -28.16928189 -5.74255639
LeftToes 4.94765e-010 2.02697e-011 4.00889e-011
197
root 106.3442023 19.8335 -92.19959288 20.68701466 78.42648589 -27.74598648
RightUpLeg -54.54459804 3.60486902 -8.840943385
RightLeg 126.1020564 1.185143098 -1.4581321
RightFoot -28.26168641 14.84860545 -16.6971645
RightToes 1.74622e-010 -3.18055e-015 8.94531e-016
Spine 49.0903 -2.63879 4.66449
Spine1 -15.0541 -0.364449 -3.82385
HEad -64.316 5.65168 4.636
LeftShoulder1 0 -2.69403e-036 -1.28585e-037
LeftArm 2.68053 -50.0561 -74.4385
LeftForeArm 8.693 -20.1675 12.3892
LeftHand -2.24411 0.139727 32.5504
RightShoulder -2.48481e-017 0 -8.08114e-019
RightArm -5.35183 28.9667 99.5643
RightForeArm 25.6965 1.15246 1.69742
RightHand 9.42447 -21.8365 -47.148
LeftUpLeg -37.12706907 -11.1528285 12.57362329
LeftLeg 92.47601262 0 0
LeftFoot 6.614999401 -29.13840954 -5.383671213
LeftToes 4.94765e-010 2.02697e-011 4.00889e-011
198
root 107.1631617 19.7414 -92.04831733 16.88306451 80.71666252 -30.07487436
RightUpLeg -59.89914299 1.638276647 -8.630746826
RightLeg 131.8737769 -0.4170314476 0.3939094268
RightFoot -31.47856104 15.98342111 -16.62039913
RightToes 1.74622e-010 -3.18055e-015 8.94531e-016
Spine 50.0957 -3.29301 4.86629
Spine1 -14.2986 -1.09326 0.450857
HEad -64.0369 6.40372 3.3361
LeftShoulder1 0 -2.69403e-036 -1.28585e-037
LeftArm -8.29358 -57.264 -70.5081
LeftForeArm 15.0976 -10.6349 7.04647
LeftHand -1.69135 0.630446 27.7734
RightShoulder -2.48481e-017 0 -8.08114e-019
RightArm -4.63212 27.4958 100.213
RightForeArm 27.3062 1.51924 2.17363
RightHand 9.6625 -22.0024 -47.9203
LeftUpLeg -33.66812352 -14.6682799 13.40497768
LeftLeg 89.02045608 0 0
LeftFoot 7.79670174 -31.67071521 -6.345398483
LeftToes 4.94765e-010 2.02697e-011 4.00889e-011
199
root 107.9947578 19.6052 -91.91784507 11.23786551 82.70027169 -34.08356053
RightUpLeg -65.0538277 -0.143311813 -8.249848391
RightLeg 136.2102424 -1.051796365 0.5040207275
RightFoot -33.63101631 17.43085846 -15.95426223
RightToes 1.74622e-010 -3.18055e-015 8.94531e-016
Spine 51.5526 -3.93702 5.03659
Spine1 -14.3587 -1.75753 4.08937
HEad -63.3388 6.89237 2.25971
LeftShoulder1 0 -2.69403e-036 -1.28585e-037
LeftArm -6.42102 -61.6849 -69.484
LeftForeArm 10.2879 -1.84538 5.6629
LeftHand -1.09441 1.26795 22.1536
RightShoulder -2.48481e-017 0 -8.08114e-019
RightArm -4.0299 25.6109 100.669
RightForeArm 28.9055 1.50947 3.00562
RightHand 9.98114 -22.2111 -48.9627
LeftUpLeg -29.64237472 -18.06684456 13.77373035
LeftLeg 86.02218261 0 0
LeftFoot 7.081024141 -33.12735832 -7.734903647
LeftToes 4.94765e-010 2.02697e-011 4.00889e-011
